<?xml version="1.0" encoding="UTF-8"?>
<svg width="206px" height="23px" viewBox="0 0 206 23" version="1.1" xmlns="http://www.w3.org/2000/svg" xmlns:xlink="http://www.w3.org/1999/xlink">
    <!-- Generator: Sketch 48.2 (47327) - http://www.bohemiancoding.com/sketch -->
    <title>Logo Copy</title>
    <desc>Created with Sketch.</desc>
    <defs></defs>
    <g id="Page-1" stroke="none" stroke-width="1" fill="none" fill-rule="evenodd">
        <g id="Logo-Copy" fill="#444">
            <path d="M0,11.8415392 L0,11.7786632 C0,5.64216898 4.53436944,0.559354709 10.8448005,0.559354709 C14.7346961,0.559354709 17.0640229,1.95378201 19.2079257,3.99928009 L17.5541438,5.79733071 C15.7470111,4.06114196 13.7243857,2.82086226 10.8137294,2.82086226 C6.06587177,2.82086226 2.51274629,6.72728695 2.51274629,11.7168014 L2.51274629,11.7786632 C2.51274629,16.8006298 6.09694282,20.7374783 10.8137294,20.7374783 C13.7554567,20.7374783 15.684869,19.5904985 17.7375632,17.6068623 L19.3302054,19.1878893 C17.095094,21.4808348 14.6434875,23 10.7535919,23 C4.5654405,23 0,18.0723475 0,11.8415392 Z M49.2017172,22.6282203 L49.2017172,0.930931554 L51.6222526,0.930931554 L51.6222526,22.6282203 L49.2017172,22.6282203 Z M57.900911,0.930728729 L60.1680957,0.930728729 L73.6779908,18.3189836 L73.6779908,0.930728729 L76.0373864,0.930728729 L76.0373864,22.6280175 L74.1069719,22.6280175 L60.2603066,4.8361393 L60.2603066,22.6280175 L57.900911,22.6280175 L57.900911,0.930728729 Z M100.000495,0.930728729 L105.055054,0.930728729 L109.497212,15.6224148 L114.30621,0.867852734 L118.350458,0.867852734 L123.159456,15.6224148 L127.602617,0.930728729 L132.534896,0.930728729 L125.21215,22.7831792 L121.107764,22.7831792 L116.266693,8.58638813 L111.426624,22.7831792 L107.322238,22.7831792 L100.000495,0.930728729 Z M136.242775,22.6282203 L136.242775,0.930931554 L140.960564,0.930931554 L140.960564,22.6282203 L136.242775,22.6282203 Z M151.315144,5.33194694 L144.790222,5.33194694 L144.790222,0.930627316 L162.558856,0.930627316 L162.558856,5.33194694 L156.032933,5.33194694 L156.032933,22.6279161 L151.315144,22.6279161 L151.315144,5.33194694 Z M41.3581801,11.8415392 L41.3581801,11.7786632 C41.3581801,6.85101068 37.8040524,2.82086226 32.902844,2.82086226 C28.0016357,2.82086226 24.5086477,6.78914882 24.5086477,11.7168014 L24.5086477,11.7786632 C24.5086477,16.708344 28.0627755,20.7374783 32.9639838,20.7374783 C37.8661945,20.7374783 41.3581801,16.7702059 41.3581801,11.8415392 M21.9969037,11.8415392 L21.9969037,11.7786632 C21.9969037,5.79733071 26.43806,0.559354709 32.9639838,0.559354709 C39.4899077,0.559354709 43.8699241,5.73546884 43.8699241,11.7168014 L43.8699241,11.7786632 C43.8699241,17.762024 39.4277656,23 32.902844,23 C26.3779225,23 21.9969037,17.8228717 21.9969037,11.8415392 Z M164.304749,11.8415392 L164.304749,11.7786632 C164.304749,5.61073098 168.900258,0.559354709 175.48632,0.559354709 C179.530568,0.559354709 181.950101,1.92234401 183.941656,3.90598023 L180.939791,7.4087816 C179.285007,5.88961644 177.601156,4.9596602 175.456251,4.9596602 C171.841986,4.9596602 169.237028,7.99799052 169.237028,11.7168014 L169.237028,11.7786632 C169.237028,15.4984882 171.779843,18.5986804 175.456251,18.5986804 C177.906855,18.5986804 179.407286,17.6068623 181.093142,16.0572732 L184.095006,19.1260274 C181.889964,21.5122728 179.43936,23 175.3029,23 C168.992469,23 164.304749,18.0723475 164.304749,11.8415392 Z M187.863525,0.930728729 L192.581313,0.930728729 L192.581313,9.51634438 L201.281209,9.51634438 L201.281209,0.930728729 L206,0.930728729 L206,22.6280175 L201.281209,22.6280175 L201.281209,13.917664 L192.581313,13.917664 L192.581313,22.6280175 L187.863525,22.6280175 L187.863525,0.930728729 Z M86.3325379,20.9622093 C86.3195081,20.9713365 86.3094852,20.9824919 86.2974577,20.9906049 C86.1711689,21.085933 86.0368618,21.1670633 85.8955386,21.2390665 L85.893534,21.2400806 C85.601867,21.3881435 85.2831381,21.4804292 84.9443634,21.5138954 L84.9433611,21.5138954 C84.8581663,21.5220085 84.774976,21.5392487 84.6867743,21.5392487 C84.6687331,21.5392487 84.6496895,21.5392487 84.6316482,21.5392487 C83.1342239,21.5088248 81.9445031,20.2553614 81.9745719,18.7402528 C82.0046407,17.2433985 83.2134049,16.0517969 84.6847697,16.0517969 C84.7038133,16.0517969 84.7228568,16.0517969 84.7408981,16.0517969 C86.1841987,16.0822208 87.3288163,17.2484691 87.3849446,18.6875181 C87.3869492,18.7432952 87.3979744,18.7950157 87.3969721,18.8507928 C87.3949676,19.0323219 87.3719148,19.2087804 87.33483,19.3781399 C87.3197956,19.450143 87.2917315,19.5170756 87.2716856,19.5870504 C87.2426192,19.6803503 87.2185641,19.7756784 87.1814793,19.8639077 C87.1423899,19.9572075 87.091273,20.0434085 87.0421607,20.1306236 C87.0110897,20.1864007 86.9830255,20.2452201 86.9489476,20.298969 C86.8807917,20.4024101 86.8026129,20.4977382 86.7224296,20.5910381 C86.6973723,20.6184196 86.6763241,20.6488435 86.6502645,20.6752108 C86.5530422,20.7806802 86.4447946,20.8739801 86.3325379,20.9622093 Z M91.4751984,3.73641787 C91.4511434,3.58734091 91.4361091,3.43522157 91.4391159,3.27803158 C91.4421228,3.11272857 91.4651755,2.95452445 91.4962466,2.79733446 C91.5042649,2.75474105 91.5142878,2.71214763 91.5243108,2.66955422 C91.5573864,2.53670333 91.5984804,2.40689482 91.6495973,2.28317109 C91.6706454,2.23043638 91.696705,2.1817582 91.72076,2.13105175 C91.7648609,2.0418084 91.8129709,1.95357918 91.8660924,1.87042061 C91.9071863,1.80450223 91.9502849,1.74264036 91.9963903,1.6807785 C92.029466,1.63717095 92.0655485,1.59660579 92.1006287,1.55502651 C92.2108808,1.425218 92.3311559,1.30656492 92.4644607,1.20008138 C92.482502,1.18486944 92.499541,1.16965751 92.5185845,1.1554597 C92.6037793,1.09055545 92.6909788,1.02970771 92.7841919,0.973930622 C93.1871133,0.73561032 93.6501723,0.589575752 94.1493138,0.589575752 C94.1683573,0.589575752 94.1863986,0.589575752 94.2054421,0.589575752 C95.7028665,0.61999962 96.8915849,1.873463 96.8615162,3.38857164 C96.8324497,4.88441183 95.6246877,6.07702747 94.1513183,6.07702747 C94.1322748,6.07702747 94.1142335,6.07702747 94.09519,6.07702747 C92.8954463,6.05268838 91.9051818,5.23631458 91.5704162,4.13598467 C91.5303245,4.00516204 91.4962466,3.87332527 91.4751984,3.73641787 Z M91.2255275,9.25023694 C95.5514202,10.485446 97.969951,12.1161653 97.8947791,15.896838 L97.8937768,15.9586999 C97.8386507,18.7688512 96.4133914,20.7423461 94.1472089,21.7514044 L94.1502158,21.755461 C92.4152482,22.7401802 88.2396993,22.8588333 86.0617186,22.8507202 C87.6944524,22.2757091 88.8931938,20.7159788 88.9292763,18.8824337 C88.9312809,18.7952186 88.9242648,18.7100317 88.921258,18.6238308 C89.7852337,18.5497994 90.67126,18.4057931 91.5632999,18.1390771 L91.5632999,18.1360348 C92.582631,17.8500504 93.1809994,17.2212904 93.1990406,16.3278428 L93.2000429,16.265981 C93.2240979,15.0571393 92.500443,14.4233087 88.9362923,13.4203352 C84.6404684,12.2165641 81.8771491,10.9509312 81.9623439,6.64392555 L81.9633462,6.58206369 C82.0144631,4.06093913 83.338491,2.11786807 85.4322792,1.06723048 L85.4292723,1.06114571 C87.0148984,0.0946808266 89.8132979,-0.02397226 91.4841188,0.00340922154 C90.5459734,0.776175477 89.933573,1.94242376 89.9075134,3.24659359 C89.9014996,3.56807246 89.9325707,3.88042418 89.9937105,4.1826346 C89.2961152,4.24753886 88.6185657,4.39053104 87.7946816,4.69679798 C87.0640107,5.01929098 86.6711122,5.58213255 86.6580824,6.24334462 L86.6570801,6.30520648 C86.6290159,7.73005765 87.5380949,8.21379716 91.2255275,9.25023694 Z" id="Combined-Shape"></path>
        </g>
    </g>
</svg>