<svg xmlns="http://www.w3.org/2000/svg" viewBox="0 0 126.7 20.4"><defs><style>.a{fill:#06f}</style></defs><path class="a" d="M22.6 9.2L18 1a2 2 0 00-1.7-1H6.7A2 2 0 005 1L.3 9.2a2 2 0 000 2L5 19.4a2 2 0 001.7 1h9.5a2 2 0 001.7-1l4.7-8.2a2 2 0 000-2zm-11.2 8v-1.4a5.6 5.6 0 10-5.6-5.6A5.5 5.5 0 007 13.6l1-1a4.2 4.2 0 01-.8-2.4 4.2 4.2 0 114.3 4.2V13a2.8 2.8 0 10-2.9-2.8 2.8 2.8 0 00.4 1.4l1-1a1.3 1.3 0 010-.4 1.4 1.4 0 111.4 1.4 1.3 1.3 0 01-.4 0L7.4 15a.6.6 0 01-.1 0 .4.4 0 01-.1.1H7v.1H6.6a.4.4 0 01-.1-.1.5.5 0 01-.1 0V15a7 7 0 115 2zM28.3 3.6h4.3c4.2 0 7.2 2.7 7.2 6.6 0 3.8-3 6.6-7.2 6.6h-4.3zm4.3 10.8c2.6 0 4.4-1.7 4.4-4.2C37 7.6 35.3 6 32.6 6H31v8.3h1.6zM49.6 16.8h-2.4v-1a4 4 0 01-3 1.2c-2.1 0-3.5-1.2-3.5-3 0-1.7 1.5-2.8 3.8-2.8H47v-.4A1.6 1.6 0 0045 9a3.4 3.4 0 00-2.6 1.4l-1.4-1.7a5.4 5.4 0 014.3-2 3.9 3.9 0 014.3 4.2v5.9zM47 13h-2c-1 0-1.4.3-1.4 1s.5 1 1.4 1a2 2 0 002-2zM57.4 17a4 4 0 01-3-1.2v4.6h-2.7V6.9h2.5v1.3a3.7 3.7 0 013.2-1.5 4.8 4.8 0 014.8 5.1 4.9 4.9 0 01-4.8 5.2zm-.5-7.9a2.5 2.5 0 00-2.5 2.7 2.5 2.5 0 002.5 2.8 2.6 2.6 0 002.5-2.7A2.5 2.5 0 0057 9zM69.4 17a4 4 0 01-3-1.2v4.6h-2.6V6.9h2.5v1.3a3.7 3.7 0 013.1-1.5 4.8 4.8 0 014.8 5.1 4.9 4.9 0 01-4.8 5.2zM69 9.1a2.5 2.5 0 00-2.5 2.7 2.5 2.5 0 002.5 2.8 2.6 2.6 0 002.6-2.7A2.5 2.5 0 0068.9 9zM84 16.8L80.6 12h-2v4.7H76V3.6h5c2.7 0 4.7 1.7 4.7 4.3a4 4 0 01-2.3 3.7l3.7 5.2h-3zm-5.4-7H81a1.8 1.8 0 002-2 1.8 1.8 0 00-2-1.8h-2.3zM96 16.8h-2.4v-1a4 4 0 01-3 1.2c-2 0-3.4-1.2-3.4-3 0-1.7 1.4-2.8 3.7-2.8h2.5v-.4A1.6 1.6 0 0091.6 9a3.4 3.4 0 00-2.6 1.4l-1.4-1.7a5.4 5.4 0 014.3-2A3.9 3.9 0 0196 11v5.9zM93.5 13h-2.1c-.9 0-1.4.3-1.4 1s.6 1 1.4 1a2 2 0 002-2zM108 1.8v15h-2.4v-1.2a3.7 3.7 0 01-3.2 1.4 4.8 4.8 0 01-4.8-5.1 4.8 4.8 0 014.8-5.2 3.8 3.8 0 013 1.2v-6zm-5 7.3a2.6 2.6 0 00-2.6 2.7 2.5 2.5 0 002.5 2.8 2.5 2.5 0 002.5-2.7A2.5 2.5 0 00103 9zM118.5 16.8H116v-1a4 4 0 01-3 1.2c-2 0-3.4-1.2-3.4-3 0-1.7 1.5-2.8 3.7-2.8h2.5v-.4A1.6 1.6 0 00114 9a3.4 3.4 0 00-2.6 1.4L110 8.7a5.4 5.4 0 014.3-2 3.9 3.9 0 014.2 4.2v5.9zm-2.7-3.8h-2c-1 0-1.5.3-1.5 1s.6 1 1.4 1a2 2 0 002.1-2zM126.7 9.3h-.7a2.4 2.4 0 00-2.7 2.6v4.9h-2.7V6.9h2.5v1.2a3.4 3.4 0 012.7-1.3 2.7 2.7 0 01.9.1v2.4z"/></svg>